<svg viewBox="0 0 48 48" fill="none" xmlns="http://www.w3.org/2000/svg">
<rect width="48" height="48" rx="24" fill="#1878FF"/>
<g clip-path="url(#clip0_1687_7481)">
<path d="M8.0732 11.4653H5V35.5627H8.0732V11.4653Z" fill="black"/>
<path d="M19.5138 26.7723H17.9314C14.6627 26.7723 12.0039 24.0029 12.0039 20.598V11.458H21.0979C24.3667 11.458 27.0254 14.2275 27.0254 17.6323V20.0224H23.9522V17.6323C23.9522 15.9934 22.6713 14.6592 21.0979 14.6592H15.0771V20.598C15.0771 22.2369 16.3581 23.5712 17.9314 23.5712H19.5138V26.7723ZM27.3322 29.368V26.492C27.3322 23.0872 24.6734 20.3177 21.4047 20.3177H19.5138V23.5189H21.4047C22.9781 23.5189 24.259 24.8531 24.259 26.492V29.368C24.259 31.0069 22.9781 32.3412 21.4047 32.3412H15.0771V26.9816H12.0039V35.5423H21.4047C24.6734 35.5423 27.3322 32.7729 27.3322 29.368Z" fill="black"/>
<path d="M37.7985 35.9999H37.2872C33.317 35.9999 30.0859 32.6343 30.0859 28.4988V18.4992C30.0859 14.3636 33.317 10.998 37.2872 10.998H37.7985C41.7688 10.998 44.9998 14.3636 44.9998 18.4992H41.9266C41.9266 16.1296 40.0752 14.2011 37.8003 14.2011H37.289C35.0142 14.2011 33.1627 16.1296 33.1627 18.4992V28.4988C33.1627 30.8684 35.0142 32.7969 37.289 32.7969H37.8003C40.0752 32.7969 41.9266 30.8684 41.9266 28.4988H44.9998C44.9998 32.6343 41.7688 35.9999 37.7985 35.9999Z" fill="black"/>
<path d="M37.7985 35.9999H37.2872C33.317 35.9999 30.0859 32.6343 30.0859 28.4988V18.4992C30.0859 14.3636 33.317 10.998 37.2872 10.998H37.7985C41.7688 10.998 44.9998 14.3636 44.9998 18.4992H41.9266C41.9266 16.1296 40.0752 14.2011 37.8003 14.2011H37.289C35.0142 14.2011 33.1627 16.1296 33.1627 18.4992V28.4988C33.1627 30.8684 35.0142 32.7969 37.289 32.7969H37.8003C40.0752 32.7969 41.9266 30.8684 41.9266 28.4988H44.9998C44.9998 32.6343 41.7688 35.9999 37.7985 35.9999Z" fill="black"/>
</g>
<defs>
<clipPath id="clip0_1687_7481">
<rect width="40" height="25" fill="white" transform="translate(5 11)"/>
</clipPath>
</defs>
</svg>
 